<svg width="32" height="32" viewBox="0 0 32 32" fill="none" xmlns="http://www.w3.org/2000/svg">
  <defs>
    <linearGradient id="gradient1" x1="0%" y1="0%" x2="100%" y2="100%">
      <stop offset="0%" style="stop-color:#00d4ff;stop-opacity:1" />
      <stop offset="50%" style="stop-color:#ff0080;stop-opacity:1" />
      <stop offset="100%" style="stop-color:#8b5cf6;stop-opacity:1" />
    </linearGradient>
    <linearGradient id="gradient2" x1="0%" y1="0%" x2="100%" y2="100%">
      <stop offset="0%" style="stop-color:#ff0080;stop-opacity:1" />
      <stop offset="100%" style="stop-color:#ffff00;stop-opacity:1" />
    </linearGradient>
  </defs>

  <!-- Background circle -->
  <circle cx="16" cy="16" r="15" fill="#0a0a0a" stroke="url(#gradient1)" stroke-width="2"/>

  <!-- Letter T -->
  <path d="M8 10 L24 10 L24 13 L18 13 L18 24 L14 24 L14 13 L8 13 Z" fill="url(#gradient1)"/>

  <!-- Letter S -->
  <path d="M20 17 Q22 15 22 13 Q22 11 20 10 L12 10 Q10 11 10 13 L13 13 Q13 12 14 12 L18 12 Q19 13 19 13 Q19 14 18 14 L14 14 Q10 15 10 18 Q10 21 14 22 L20 22 Q22 21 22 19 L19 19 Q19 20 18 20 L14 20 Q13 19 13 19 Q13 18 14 18 L18 18 Q20 17 20 17 Z" fill="url(#gradient2)" transform="translate(2, 3) scale(0.8)"/>
</svg>